# xmcd CD database file
#
# Track frame offsets:
#	150
#	29380
#	46191
#	73073
#	91135
#	111636
#	140350
#	164543
#	184128
#	204798
#	224098
#	265407
#	283395
#	308029
#	329481
#
# Disc length: 4655 seconds
#
# Revision: 2
# Processed by: cddbd v1.5.1PL2 Copyright (c) Steve Scherf et al.
# Submitted via: CDex 1.51
#
DISCID=ee122d0f
DTITLE=Free - Live! (New Version)
DYEAR=1900
DGENRE=Rock
TTITLE0=Alright Now
TTITLE1=I'm A Mover
TTITLE2=Be My Friend
TTITLE3=Fire And Water
TTITLE4=Ride On A Pony
TTITLE5=Mr Big
TTITLE6=The Hunter
TTITLE7=Get Where I Belong
TTITLE8=Woman
TTITLE9=Walk In My Shadow
TTITLE10=Moonshine
TTITLE11=Trouble On Double
TTITLE12=Mr Big (Sunderland)
TTITLE13=All Right Now (Croydon)
TTITLE14=Get Where I Belong (Alternative Take)
EXTD=Blues Rock
EXTT0=
EXTT1=
EXTT2=
EXTT3=
EXTT4=
EXTT5=
EXTT6=
EXTT7=
EXTT8=
EXTT9=
EXTT10=
EXTT11=
EXTT12=
EXTT13=
EXTT14=
PLAYORDER=
